<svg version="1.1" viewBox="0.0 0.0 200.0 300.0" fill="none" stroke="none" stroke-linecap="square" stroke-miterlimit="10" xmlns:xlink="http://www.w3.org/1999/xlink" xmlns="http://www.w3.org/2000/svg"><clipPath id="p.0"><path d="m0 0l200.0 0l0 300.0l-200.0 0l0 -300.0z" clip-rule="nonzero"/></clipPath><g clip-path="url(#p.0)"><path fill="#000000" fill-opacity="0.0" d="m0 0l200.0 0l0 300.0l-200.0 0z" fill-rule="evenodd"/><path fill="#38761d" d="m0 0l200.0 0l0 300.0l-200.0 0z" fill-rule="evenodd"/><path stroke="#000000" stroke-width="24.0" stroke-linejoin="round" stroke-linecap="butt" d="m0 0l200.0 0l0 300.0l-200.0 0z" fill-rule="evenodd"/><path fill="#000000" fill-opacity="0.0" d="m131.86087 6.976378c0.8140869 16.860455 14.8845215 72.55818 4.8845215 101.16273c-10.000008 28.604546 -54.651794 39.30184 -64.88452 70.46456c-10.232719 31.162735 2.9068298 97.09317 3.4881897 116.51181" fill-rule="evenodd"/><path stroke="#000000" stroke-width="8.0" stroke-linejoin="round" stroke-linecap="butt" d="m131.86087 6.976378c0.8140869 16.860455 14.8845215 72.55818 4.8845215 101.16273c-10.000008 28.604546 -54.651794 39.30184 -64.88452 70.46456c-10.232719 31.162735 2.9068298 97.09317 3.4881897 116.51181" fill-rule="evenodd"/></g></svg>