<svg version="1.1" viewBox="0.0 0.0 200.0 300.0" fill="none" stroke="none" stroke-linecap="square" stroke-miterlimit="10" xmlns:xlink="http://www.w3.org/1999/xlink" xmlns="http://www.w3.org/2000/svg"><clipPath id="p.0"><path d="m0 0l200.0 0l0 300.0l-200.0 0l0 -300.0z" clip-rule="nonzero"/></clipPath><g clip-path="url(#p.0)"><path fill="#000000" fill-opacity="0.0" d="m0 0l200.0 0l0 300.0l-200.0 0z" fill-rule="evenodd"/><path fill="#ff0000" d="m0 0l200.0 0l0 300.0l-200.0 0z" fill-rule="evenodd"/><path stroke="#000000" stroke-width="24.0" stroke-linejoin="round" stroke-linecap="butt" d="m0 0l200.0 0l0 300.0l-200.0 0z" fill-rule="evenodd"/><path fill="#000000" d="m50.0 223.27821l0 0c0 -27.65773 22.385765 -50.078735 50.0 -50.078735l0 0c13.260826 0 25.978523 5.2761383 35.355347 14.667725c9.376816 9.391586 14.644653 22.129303 14.644653 35.41101l0 0c0 27.65773 -22.385765 50.07875 -50.0 50.07875l0 0c-27.614235 0 -50.0 -22.42102 -50.0 -50.07875z" fill-rule="evenodd"/><path stroke="#000000" stroke-width="1.0" stroke-linejoin="round" stroke-linecap="butt" d="m50.0 223.27821l0 0c0 -27.65773 22.385765 -50.078735 50.0 -50.078735l0 0c13.260826 0 25.978523 5.2761383 35.355347 14.667725c9.376816 9.391586 14.644653 22.129303 14.644653 35.41101l0 0c0 27.65773 -22.385765 50.07875 -50.0 50.07875l0 0c-27.614235 0 -50.0 -22.42102 -50.0 -50.07875z" fill-rule="evenodd"/><path fill="#000000" fill-opacity="0.0" d="m110.65566 57.624672c1.1268616 7.377075 10.961945 29.20079 6.761154 44.262466c-4.2007904 15.061684 -27.048119 33.607613 -31.965881 46.107613c-4.917755 12.5 2.0494308 24.076996 2.45932 28.892395" fill-rule="evenodd"/><path stroke="#000000" stroke-width="4.0" stroke-linejoin="round" stroke-linecap="butt" d="m110.65566 57.624672c1.1268616 7.377075 10.961945 29.20079 6.761154 44.262466c-4.2007904 15.061684 -27.048119 33.607613 -31.965881 46.107613c-4.917755 12.5 2.0494308 24.076996 2.45932 28.892395" fill-rule="evenodd"/><path fill="#000000" fill-opacity="0.0" d="m87.20998 54.417324l18.141731 -1.3858261" fill-rule="evenodd"/><path stroke="#000000" stroke-width="4.0" stroke-linejoin="round" stroke-linecap="butt" d="m87.20998 54.417324l18.141731 -1.3858261" fill-rule="evenodd"/><path fill="#000000" fill-opacity="0.0" d="m115.81365 52.32546l17.448814 -4.8818893" fill-rule="evenodd"/><path stroke="#000000" stroke-width="4.0" stroke-linejoin="round" stroke-linecap="butt" d="m115.81365 52.32546l17.448814 -4.8818893" fill-rule="evenodd"/><path fill="#000000" fill-opacity="0.0" d="m106.04724 46.745407l-12.566925 -12.566929" fill-rule="evenodd"/><path stroke="#000000" stroke-width="4.0" stroke-linejoin="round" stroke-linecap="butt" d="m106.04724 46.745407l-12.566925 -12.566929" fill-rule="evenodd"/><path fill="#000000" fill-opacity="0.0" d="m113.02362 46.745407l6.9921265 -16.031496" fill-rule="evenodd"/><path stroke="#000000" stroke-width="4.0" stroke-linejoin="round" stroke-linecap="butt" d="m113.02362 46.745407l6.9921265 -16.031496" fill-rule="evenodd"/></g></svg>