<svg version="1.1" viewBox="0.0 0.0 200.0 200.0" fill="none" stroke="none" stroke-linecap="square" stroke-miterlimit="10" xmlns:xlink="http://www.w3.org/1999/xlink" xmlns="http://www.w3.org/2000/svg"><clipPath id="p.0"><path d="m0 0l200.0 0l0 200.0l-200.0 0l0 -200.0z" clip-rule="nonzero"/></clipPath><g clip-path="url(#p.0)"><path fill="#000000" fill-opacity="0.0" d="m0 0l200.0 0l0 200.0l-200.0 0z" fill-rule="evenodd"/><path fill="#000000" d="m0 100.0l0 0c0 -55.228474 44.771526 -100.0 100.0 -100.0l0 0c26.521652 0 51.957047 10.535684 70.71068 29.289322c18.753632 18.75364 29.289322 44.189026 29.289322 70.71068l0 0c0 55.22847 -44.77153 100.0 -100.0 100.0l0 0c-55.228474 0 -100.0 -44.77153 -100.0 -100.0z" fill-rule="evenodd"/><path stroke="#000000" stroke-width="1.0" stroke-linejoin="round" stroke-linecap="butt" d="m0 100.0l0 0c0 -55.228474 44.771526 -100.0 100.0 -100.0l0 0c26.521652 0 51.957047 10.535684 70.71068 29.289322c18.753632 18.75364 29.289322 44.189026 29.289322 70.71068l0 0c0 55.22847 -44.77153 100.0 -100.0 100.0l0 0c-55.228474 0 -100.0 -44.77153 -100.0 -100.0z" fill-rule="evenodd"/><path fill="#ffffff" d="m10.0 100.0l0 0c0 -49.705627 40.294373 -90.0 90.0 -90.0l0 0c23.869484 0 46.761337 9.482115 63.639618 26.36039c16.878265 16.878273 26.360382 39.770126 26.360382 63.63961l0 0c0 49.705627 -40.294373 90.0 -90.0 90.0l0 0c-49.705627 0 -90.0 -40.294373 -90.0 -90.0z" fill-rule="evenodd"/><path stroke="#ffffff" stroke-width="1.0" stroke-linejoin="round" stroke-linecap="butt" d="m10.0 100.0l0 0c0 -49.705627 40.294373 -90.0 90.0 -90.0l0 0c23.869484 0 46.761337 9.482115 63.639618 26.36039c16.878265 16.878273 26.360382 39.770126 26.360382 63.63961l0 0c0 49.705627 -40.294373 90.0 -90.0 90.0l0 0c-49.705627 0 -90.0 -40.294373 -90.0 -90.0z" fill-rule="evenodd"/><path fill="#000000" fill-opacity="0.0" d="m0 9.511811l200.0 0l0 180.97638l-200.0 0z" fill-rule="evenodd"/><path fill="#000000" d="m68.45587 121.51181l12.3125 -1.046875q1.359375 8.984375 6.34375 13.515625q4.984375 4.53125 12.015625 4.53125q8.453125 0 14.3125 -6.375q5.859375 -6.390625 5.859375 -16.9375q0 -10.03125 -5.640625 -15.8125q-5.625 -5.796875 -14.734375 -5.796875q-5.65625 0 -10.21875 2.578125q-4.5625 2.5625 -7.15625 6.65625l-11.015625 -1.421875l9.25 -49.03125l47.46875 0l0 11.203125l-38.09375 0l-5.140625 25.640625q8.59375 -5.984375 18.03125 -5.984375q12.5 0 21.09375 8.65625q8.59375 8.65625 8.59375 22.265625q0 12.953125 -7.546875 22.40625q-9.1875 11.578125 -25.0625 11.578125q-13.03125 0 -21.265625 -7.28125q-8.234375 -7.296875 -9.40625 -19.34375z" fill-rule="nonzero"/></g></svg>