<svg version="1.1" viewBox="0.0 0.0 200.0 200.0" fill="none" stroke="none" stroke-linecap="square" stroke-miterlimit="10" xmlns:xlink="http://www.w3.org/1999/xlink" xmlns="http://www.w3.org/2000/svg"><clipPath id="p.0"><path d="m0 0l200.0 0l0 200.0l-200.0 0l0 -200.0z" clip-rule="nonzero"/></clipPath><g clip-path="url(#p.0)"><path fill="#000000" fill-opacity="0.0" d="m0 0l200.0 0l0 200.0l-200.0 0z" fill-rule="evenodd"/><path fill="#000000" d="m0 100.0l0 0c0 -55.228474 44.771526 -100.0 100.0 -100.0l0 0c26.521652 0 51.957047 10.535684 70.71068 29.289322c18.753632 18.75364 29.289322 44.189026 29.289322 70.71068l0 0c0 55.22847 -44.77153 100.0 -100.0 100.0l0 0c-55.228474 0 -100.0 -44.77153 -100.0 -100.0z" fill-rule="evenodd"/><path stroke="#000000" stroke-width="1.0" stroke-linejoin="round" stroke-linecap="butt" d="m0 100.0l0 0c0 -55.228474 44.771526 -100.0 100.0 -100.0l0 0c26.521652 0 51.957047 10.535684 70.71068 29.289322c18.753632 18.75364 29.289322 44.189026 29.289322 70.71068l0 0c0 55.22847 -44.77153 100.0 -100.0 100.0l0 0c-55.228474 0 -100.0 -44.77153 -100.0 -100.0z" fill-rule="evenodd"/><path fill="#ffffff" d="m10.0 100.0l0 0c0 -49.705627 40.294373 -90.0 90.0 -90.0l0 0c23.869484 0 46.761337 9.482115 63.639618 26.36039c16.878265 16.878273 26.360382 39.770126 26.360382 63.63961l0 0c0 49.705627 -40.294373 90.0 -90.0 90.0l0 0c-49.705627 0 -90.0 -40.294373 -90.0 -90.0z" fill-rule="evenodd"/><path stroke="#ffffff" stroke-width="1.0" stroke-linejoin="round" stroke-linecap="butt" d="m10.0 100.0l0 0c0 -49.705627 40.294373 -90.0 90.0 -90.0l0 0c23.869484 0 46.761337 9.482115 63.639618 26.36039c16.878265 16.878273 26.360382 39.770126 26.360382 63.63961l0 0c0 49.705627 -40.294373 90.0 -90.0 90.0l0 0c-49.705627 0 -90.0 -40.294373 -90.0 -90.0z" fill-rule="evenodd"/><path fill="#000000" fill-opacity="0.0" d="m0 9.511811l200.0 0l0 180.97638l-200.0 0z" fill-rule="evenodd"/><path fill="#000000" d="m112.5965 146.51181l-11.71875 0l0 -74.671875q-4.234375 4.03125 -11.109375 8.078125q-6.859375 4.03125 -12.328125 6.046875l0 -11.328125q9.828125 -4.625 17.1875 -11.1875q7.359375 -6.578125 10.421875 -12.765625l7.546875 0l0 95.828125z" fill-rule="nonzero"/></g></svg>