<svg version="1.1" viewBox="0.0 0.0 200.0 200.0" fill="none" stroke="none" stroke-linecap="square" stroke-miterlimit="10" xmlns:xlink="http://www.w3.org/1999/xlink" xmlns="http://www.w3.org/2000/svg"><clipPath id="p.0"><path d="m0 0l200.0 0l0 200.0l-200.0 0l0 -200.0z" clip-rule="nonzero"/></clipPath><g clip-path="url(#p.0)"><path fill="#000000" fill-opacity="0.0" d="m0 0l200.0 0l0 200.0l-200.0 0z" fill-rule="evenodd"/><path fill="#000000" d="m0 100.0l0 0c0 -55.228474 44.771526 -100.0 100.0 -100.0l0 0c26.521652 0 51.957047 10.535684 70.71068 29.289322c18.753632 18.75364 29.289322 44.189026 29.289322 70.71068l0 0c0 55.22847 -44.77153 100.0 -100.0 100.0l0 0c-55.228474 0 -100.0 -44.77153 -100.0 -100.0z" fill-rule="evenodd"/><path stroke="#000000" stroke-width="1.0" stroke-linejoin="round" stroke-linecap="butt" d="m0 100.0l0 0c0 -55.228474 44.771526 -100.0 100.0 -100.0l0 0c26.521652 0 51.957047 10.535684 70.71068 29.289322c18.753632 18.75364 29.289322 44.189026 29.289322 70.71068l0 0c0 55.22847 -44.77153 100.0 -100.0 100.0l0 0c-55.228474 0 -100.0 -44.77153 -100.0 -100.0z" fill-rule="evenodd"/><path fill="#ffffff" d="m10.0 100.0l0 0c0 -49.705627 40.294373 -90.0 90.0 -90.0l0 0c23.869484 0 46.761337 9.482115 63.639618 26.36039c16.878265 16.878273 26.360382 39.770126 26.360382 63.63961l0 0c0 49.705627 -40.294373 90.0 -90.0 90.0l0 0c-49.705627 0 -90.0 -40.294373 -90.0 -90.0z" fill-rule="evenodd"/><path stroke="#ffffff" stroke-width="1.0" stroke-linejoin="round" stroke-linecap="butt" d="m10.0 100.0l0 0c0 -49.705627 40.294373 -90.0 90.0 -90.0l0 0c23.869484 0 46.761337 9.482115 63.639618 26.36039c16.878265 16.878273 26.360382 39.770126 26.360382 63.63961l0 0c0 49.705627 -40.294373 90.0 -90.0 90.0l0 0c-49.705627 0 -90.0 -40.294373 -90.0 -90.0z" fill-rule="evenodd"/><path fill="#000000" fill-opacity="0.0" d="m0 9.511811l200.0 0l0 180.97638l-200.0 0z" fill-rule="evenodd"/><path fill="#000000" d="m130.04962 135.24619l0 11.265625l-63.09375 0q-0.125 -4.234375 1.375 -8.140625q2.40625 -6.4375 7.703125 -12.6875q5.3125 -6.25 15.34375 -14.453125q15.5625 -12.765625 21.03125 -20.21875q5.46875 -7.453125 5.46875 -14.09375q0 -6.96875 -4.984375 -11.75q-4.984375 -4.78125 -12.984375 -4.78125q-8.46875 0 -13.546875 5.078125q-5.078125 5.078125 -5.140625 14.0625l-12.046875 -1.234375q1.234375 -13.484375 9.296875 -20.546875q8.078125 -7.0625 21.6875 -7.0625q13.734375 0 21.734375 7.625q8.015625 7.609375 8.015625 18.875q0 5.71875 -2.34375 11.265625q-2.34375 5.53125 -7.78125 11.65625q-5.421875 6.109375 -18.0625 16.78125q-10.546875 8.859375 -13.546875 12.015625q-2.984375 3.15625 -4.9375 6.34375l46.8125 0z" fill-rule="nonzero"/></g></svg>