<svg version="1.1" viewBox="0.0 0.0 200.0 200.0" fill="none" stroke="none" stroke-linecap="square" stroke-miterlimit="10" xmlns:xlink="http://www.w3.org/1999/xlink" xmlns="http://www.w3.org/2000/svg"><clipPath id="p.0"><path d="m0 0l200.0 0l0 200.0l-200.0 0l0 -200.0z" clip-rule="nonzero"/></clipPath><g clip-path="url(#p.0)"><path fill="#000000" fill-opacity="0.0" d="m0 0l200.0 0l0 200.0l-200.0 0z" fill-rule="evenodd"/><path fill="#000000" d="m0 100.0l0 0c0 -55.228474 44.771526 -100.0 100.0 -100.0l0 0c26.521652 0 51.957047 10.535684 70.71068 29.289322c18.753632 18.75364 29.289322 44.189026 29.289322 70.71068l0 0c0 55.22847 -44.77153 100.0 -100.0 100.0l0 0c-55.228474 0 -100.0 -44.77153 -100.0 -100.0z" fill-rule="evenodd"/><path stroke="#000000" stroke-width="1.0" stroke-linejoin="round" stroke-linecap="butt" d="m0 100.0l0 0c0 -55.228474 44.771526 -100.0 100.0 -100.0l0 0c26.521652 0 51.957047 10.535684 70.71068 29.289322c18.753632 18.75364 29.289322 44.189026 29.289322 70.71068l0 0c0 55.22847 -44.77153 100.0 -100.0 100.0l0 0c-55.228474 0 -100.0 -44.77153 -100.0 -100.0z" fill-rule="evenodd"/><path fill="#ffffff" d="m10.0 99.99869l0 0c0 -49.705627 40.294373 -90.0 90.0 -90.0l0 0c23.869484 0 46.761337 9.482115 63.639618 26.36039c16.878265 16.878273 26.360382 39.770126 26.360382 63.63961l0 0c0 49.705627 -40.294373 90.0 -90.0 90.0l0 0c-49.705627 0 -90.0 -40.294373 -90.0 -90.0z" fill-rule="evenodd"/><path stroke="#ffffff" stroke-width="1.0" stroke-linejoin="round" stroke-linecap="butt" d="m10.0 99.99869l0 0c0 -49.705627 40.294373 -90.0 90.0 -90.0l0 0c23.869484 0 46.761337 9.482115 63.639618 26.36039c16.878265 16.878273 26.360382 39.770126 26.360382 63.63961l0 0c0 49.705627 -40.294373 90.0 -90.0 90.0l0 0c-49.705627 0 -90.0 -40.294373 -90.0 -90.0z" fill-rule="evenodd"/><path fill="#000000" fill-opacity="0.0" d="m132.90347 166.56168c1.061676 -8.174103 10.191605 -33.12117 6.3700867 -49.044617c-3.8215332 -15.923447 -23.77909 -32.483376 -29.299217 -46.496063c-5.5201187 -14.012684 -3.1846008 -31.316708 -3.8215256 -37.58005" fill-rule="evenodd"/><path stroke="#000000" stroke-width="8.0" stroke-linejoin="round" stroke-linecap="butt" d="m132.90347 166.56168c1.061676 -8.174103 10.191605 -33.12117 6.3700867 -49.044617c-3.8215332 -15.923447 -23.77909 -32.483376 -29.299217 -46.496063c-5.5201187 -14.012684 -3.1846008 -31.316708 -3.8215256 -37.58005" fill-rule="evenodd"/><path fill="#000000" fill-opacity="0.0" d="m67.09639 166.55905c-1.061676 -8.174103 -10.191601 -33.12117 -6.370079 -49.044617c3.8215256 -15.923447 23.77909 -32.483376 29.29921 -46.496063c5.5201263 -14.012684 3.1846085 -31.316708 3.8215256 -37.58005" fill-rule="evenodd"/><path stroke="#000000" stroke-width="8.0" stroke-linejoin="round" stroke-linecap="butt" d="m67.09639 166.55905c-1.061676 -8.174103 -10.191601 -33.12117 -6.370079 -49.044617c3.8215256 -15.923447 23.77909 -32.483376 29.29921 -46.496063c5.5201263 -14.012684 3.1846085 -31.316708 3.8215256 -37.58005" fill-rule="evenodd"/><path fill="#000000" d="m93.95276 52.742783l12.094482 0l0 20.188972l-12.094482 0z" fill-rule="evenodd"/><path stroke="#000000" stroke-width="1.0" stroke-linejoin="round" stroke-linecap="butt" d="m93.95276 52.742783l12.094482 0l0 20.188972l-12.094482 0z" fill-rule="evenodd"/></g></svg>