<svg version="1.1" viewBox="0.0 0.0 200.0 200.0" fill="none" stroke="none" stroke-linecap="square" stroke-miterlimit="10" xmlns:xlink="http://www.w3.org/1999/xlink" xmlns="http://www.w3.org/2000/svg"><clipPath id="p.0"><path d="m0 0l200.0 0l0 200.0l-200.0 0l0 -200.0z" clip-rule="nonzero"/></clipPath><g clip-path="url(#p.0)"><path fill="#000000" fill-opacity="0.0" d="m0 0l200.0 0l0 200.0l-200.0 0z" fill-rule="evenodd"/><path fill="#000000" d="m0 100.0l0 0c0 -55.228474 44.771526 -100.0 100.0 -100.0l0 0c26.521652 0 51.957047 10.535684 70.71068 29.289322c18.753632 18.75364 29.289322 44.189026 29.289322 70.71068l0 0c0 55.22847 -44.77153 100.0 -100.0 100.0l0 0c-55.228474 0 -100.0 -44.77153 -100.0 -100.0z" fill-rule="evenodd"/><path stroke="#000000" stroke-width="1.0" stroke-linejoin="round" stroke-linecap="butt" d="m0 100.0l0 0c0 -55.228474 44.771526 -100.0 100.0 -100.0l0 0c26.521652 0 51.957047 10.535684 70.71068 29.289322c18.753632 18.75364 29.289322 44.189026 29.289322 70.71068l0 0c0 55.22847 -44.77153 100.0 -100.0 100.0l0 0c-55.228474 0 -100.0 -44.77153 -100.0 -100.0z" fill-rule="evenodd"/><path fill="#ffffff" d="m10.0 100.0l0 0c0 -49.705627 40.294373 -90.0 90.0 -90.0l0 0c23.869484 0 46.761337 9.482115 63.639618 26.36039c16.878265 16.878273 26.360382 39.770126 26.360382 63.63961l0 0c0 49.705627 -40.294373 90.0 -90.0 90.0l0 0c-49.705627 0 -90.0 -40.294373 -90.0 -90.0z" fill-rule="evenodd"/><path stroke="#ffffff" stroke-width="1.0" stroke-linejoin="round" stroke-linecap="butt" d="m10.0 100.0l0 0c0 -49.705627 40.294373 -90.0 90.0 -90.0l0 0c23.869484 0 46.761337 9.482115 63.639618 26.36039c16.878265 16.878273 26.360382 39.770126 26.360382 63.63961l0 0c0 49.705627 -40.294373 90.0 -90.0 90.0l0 0c-49.705627 0 -90.0 -40.294373 -90.0 -90.0z" fill-rule="evenodd"/><path fill="#000000" fill-opacity="0.0" d="m0 9.511811l200.0 0l0 180.97638l-200.0 0z" fill-rule="evenodd"/><path fill="#000000" d="m68.51837 121.32431l11.71875 -1.5625q2.015625 9.953125 6.859375 14.359375q4.859375 4.390625 11.828125 4.390625q8.265625 0 13.953125 -5.734375q5.703125 -5.734375 5.703125 -14.1875q0 -8.078125 -5.28125 -13.3125q-5.265625 -5.25 -13.390625 -5.25q-3.328125 0 -8.28125 1.296875l1.3125 -10.28125q1.171875 0.125 1.890625 0.125q7.484375 0 13.46875 -3.90625q5.984375 -3.90625 5.984375 -12.03125q0 -6.453125 -4.359375 -10.671875q-4.359375 -4.234375 -11.265625 -4.234375q-6.828125 0 -11.390625 4.296875q-4.546875 4.296875 -5.859375 12.890625l-11.71875 -2.09375q2.15625 -11.78125 9.765625 -18.25q7.625 -6.484375 18.953125 -6.484375q7.8125 0 14.375 3.359375q6.578125 3.34375 10.0625 9.140625q3.484375 5.796875 3.484375 12.296875q0 6.1875 -3.328125 11.265625q-3.3125 5.078125 -9.8125 8.078125q8.453125 1.953125 13.140625 8.109375q4.6875 6.140625 4.6875 15.390625q0 12.5 -9.109375 21.1875q-9.109375 8.6875 -23.046875 8.6875q-12.5625 0 -20.875 -7.484375q-8.296875 -7.484375 -9.46875 -19.390625z" fill-rule="nonzero"/></g></svg>