<svg version="1.1" viewBox="0.0 0.0 200.0 200.0" fill="none" stroke="none" stroke-linecap="square" stroke-miterlimit="10" xmlns:xlink="http://www.w3.org/1999/xlink" xmlns="http://www.w3.org/2000/svg"><clipPath id="p.0"><path d="m0 0l200.0 0l0 200.0l-200.0 0l0 -200.0z" clip-rule="nonzero"/></clipPath><g clip-path="url(#p.0)"><path fill="#000000" fill-opacity="0.0" d="m0 0l200.0 0l0 200.0l-200.0 0z" fill-rule="evenodd"/><path fill="#000000" d="m0 100.0l0 0c0 -55.228474 44.771526 -100.0 100.0 -100.0l0 0c26.521652 0 51.957047 10.535684 70.71068 29.289322c18.753632 18.75364 29.289322 44.189026 29.289322 70.71068l0 0c0 55.22847 -44.77153 100.0 -100.0 100.0l0 0c-55.228474 0 -100.0 -44.77153 -100.0 -100.0z" fill-rule="evenodd"/><path stroke="#000000" stroke-width="1.0" stroke-linejoin="round" stroke-linecap="butt" d="m0 100.0l0 0c0 -55.228474 44.771526 -100.0 100.0 -100.0l0 0c26.521652 0 51.957047 10.535684 70.71068 29.289322c18.753632 18.75364 29.289322 44.189026 29.289322 70.71068l0 0c0 55.22847 -44.77153 100.0 -100.0 100.0l0 0c-55.228474 0 -100.0 -44.77153 -100.0 -100.0z" fill-rule="evenodd"/><path fill="#ffffff" d="m9.998688 100.0l0 0c0 -49.705627 40.294373 -90.0 90.0 -90.0l0 0c23.869484 0 46.761337 9.482115 63.639603 26.36039c16.87828 16.878273 26.360397 39.770126 26.360397 63.63961l0 0c0 49.705627 -40.294373 90.0 -90.0 90.0l0 0c-49.705627 0 -90.0 -40.294373 -90.0 -90.0z" fill-rule="evenodd"/><path stroke="#ffffff" stroke-width="1.0" stroke-linejoin="round" stroke-linecap="butt" d="m9.998688 100.0l0 0c0 -49.705627 40.294373 -90.0 90.0 -90.0l0 0c23.869484 0 46.761337 9.482115 63.639603 26.36039c16.87828 16.878273 26.360397 39.770126 26.360397 63.63961l0 0c0 49.705627 -40.294373 90.0 -90.0 90.0l0 0c-49.705627 0 -90.0 -40.294373 -90.0 -90.0z" fill-rule="evenodd"/><path fill="#000000" d="m74.99213 135.60846l0 0c0 -13.828865 11.1964035 -25.039368 25.007874 -25.039368l0 0c6.6324997 0 12.993355 2.6380615 17.683235 7.3338547c4.689888 4.695793 7.3246384 11.064659 7.3246384 17.705513l0 0c0 13.828857 -11.1964035 25.039368 -25.007874 25.039368l0 0c-13.81147 0 -25.007874 -11.21051 -25.007874 -25.039368z" fill-rule="evenodd"/><path stroke="#000000" stroke-width="1.0" stroke-linejoin="round" stroke-linecap="butt" d="m74.99213 135.60846l0 0c0 -13.828865 11.1964035 -25.039368 25.007874 -25.039368l0 0c6.6324997 0 12.993355 2.6380615 17.683235 7.3338547c4.689888 4.695793 7.3246384 11.064659 7.3246384 17.705513l0 0c0 13.828857 -11.1964035 25.039368 -25.007874 25.039368l0 0c-13.81147 0 -25.007874 -11.21051 -25.007874 -25.039368z" fill-rule="evenodd"/><path fill="#000000" fill-opacity="0.0" d="m105.31671 52.675922c0.5630951 3.695179 5.477684 14.626675 3.3785553 22.17107c-2.0991364 7.5443954 -13.515945 16.834053 -15.973351 23.095299c-2.457405 6.2612534 1.0241013 12.060165 1.22892 14.4721985" fill-rule="evenodd"/><path stroke="#000000" stroke-width="2.0" stroke-linejoin="round" stroke-linecap="butt" d="m105.31671 52.675922c0.5630951 3.695179 5.477684 14.626675 3.3785553 22.17107c-2.0991364 7.5443954 -13.515945 16.834053 -15.973351 23.095299c-2.457405 6.2612534 1.0241013 12.060165 1.22892 14.4721985" fill-rule="evenodd"/><path fill="#000000" fill-opacity="0.0" d="m93.60247 51.069313l8.976379 -0.7874031" fill-rule="evenodd"/><path stroke="#000000" stroke-width="2.0" stroke-linejoin="round" stroke-linecap="butt" d="m93.60247 51.069313l8.976379 -0.7874031" fill-rule="evenodd"/><path fill="#000000" fill-opacity="0.0" d="m107.90843 50.02147l8.598427 -2.3622055" fill-rule="evenodd"/><path stroke="#000000" stroke-width="2.0" stroke-linejoin="round" stroke-linecap="butt" d="m107.90843 50.02147l8.598427 -2.3622055" fill-rule="evenodd"/><path fill="#000000" fill-opacity="0.0" d="m103.02383 47.226337l-6.2677155 -6.2992134" fill-rule="evenodd"/><path stroke="#000000" stroke-width="2.0" stroke-linejoin="round" stroke-linecap="butt" d="m103.02383 47.226337l-6.2677155 -6.2992134" fill-rule="evenodd"/><path fill="#000000" fill-opacity="0.0" d="m106.513016 47.226337l3.5275574 -7.874016" fill-rule="evenodd"/><path stroke="#000000" stroke-width="2.0" stroke-linejoin="round" stroke-linecap="butt" d="m106.513016 47.226337l3.5275574 -7.874016" fill-rule="evenodd"/><path fill="#000000" fill-opacity="0.0" d="m36.359077 36.36039l127.2756 127.2756" fill-rule="evenodd"/><path stroke="#ff0000" stroke-width="4.0" stroke-linejoin="round" stroke-linecap="butt" d="m36.359077 36.36039l127.2756 127.2756" fill-rule="evenodd"/><path fill="#000000" fill-opacity="0.0" d="m36.359077 163.6396l127.2756 -127.27558" fill-rule="evenodd"/><path stroke="#ff0000" stroke-width="4.0" stroke-linejoin="round" stroke-linecap="butt" d="m36.359077 163.6396l127.2756 -127.27558" fill-rule="evenodd"/></g></svg>