<svg version="1.1" viewBox="0.0 0.0 200.0 200.0" fill="none" stroke="none" stroke-linecap="square" stroke-miterlimit="10" xmlns:xlink="http://www.w3.org/1999/xlink" xmlns="http://www.w3.org/2000/svg"><clipPath id="p.0"><path d="m0 0l200.0 0l0 200.0l-200.0 0l0 -200.0z" clip-rule="nonzero"/></clipPath><g clip-path="url(#p.0)"><path fill="#000000" fill-opacity="0.0" d="m0 0l200.0 0l0 200.0l-200.0 0z" fill-rule="evenodd"/><path fill="#000000" d="m0 100.0l0 0c0 -55.228474 44.771526 -100.0 100.0 -100.0l0 0c26.521652 0 51.957047 10.535684 70.71068 29.289322c18.753632 18.75364 29.289322 44.189026 29.289322 70.71068l0 0c0 55.22847 -44.77153 100.0 -100.0 100.0l0 0c-55.228474 0 -100.0 -44.77153 -100.0 -100.0z" fill-rule="evenodd"/><path stroke="#000000" stroke-width="1.0" stroke-linejoin="round" stroke-linecap="butt" d="m0 100.0l0 0c0 -55.228474 44.771526 -100.0 100.0 -100.0l0 0c26.521652 0 51.957047 10.535684 70.71068 29.289322c18.753632 18.75364 29.289322 44.189026 29.289322 70.71068l0 0c0 55.22847 -44.77153 100.0 -100.0 100.0l0 0c-55.228474 0 -100.0 -44.77153 -100.0 -100.0z" fill-rule="evenodd"/><path fill="#ffffff" d="m10.0 100.0l0 0c0 -49.705627 40.294373 -90.0 90.0 -90.0l0 0c23.869484 0 46.761337 9.482115 63.639618 26.36039c16.878265 16.878273 26.360382 39.770126 26.360382 63.63961l0 0c0 49.705627 -40.294373 90.0 -90.0 90.0l0 0c-49.705627 0 -90.0 -40.294373 -90.0 -90.0z" fill-rule="evenodd"/><path stroke="#ffffff" stroke-width="1.0" stroke-linejoin="round" stroke-linecap="butt" d="m10.0 100.0l0 0c0 -49.705627 40.294373 -90.0 90.0 -90.0l0 0c23.869484 0 46.761337 9.482115 63.639618 26.36039c16.878265 16.878273 26.360382 39.770126 26.360382 63.63961l0 0c0 49.705627 -40.294373 90.0 -90.0 90.0l0 0c-49.705627 0 -90.0 -40.294373 -90.0 -90.0z" fill-rule="evenodd"/><path fill="#000000" fill-opacity="0.0" d="m0 9.511811l200.0 0l0 180.97638l-200.0 0z" fill-rule="evenodd"/><path fill="#000000" d="m68.45587 99.44931q0 -16.9375 3.484375 -27.25q3.484375 -10.3125 10.34375 -15.90625q6.875 -5.609375 17.296875 -5.609375q7.671875 0 13.46875 3.09375q5.796875 3.09375 9.5625 8.921875q3.78125 5.828125 5.921875 14.1875q2.15625 8.359375 2.15625 22.5625q0 16.796875 -3.453125 27.109375q-3.4375 10.3125 -10.3125 15.953125q-6.859375 5.625 -17.34375 5.625q-13.8125 0 -21.6875 -9.890625q-9.4375 -11.921875 -9.4375 -38.796875zm12.046875 0q0 23.5 5.5 31.28125q5.5 7.78125 13.578125 7.78125q8.0625 0 13.5625 -7.8125q5.515625 -7.8125 5.515625 -31.25q0 -23.578125 -5.515625 -31.3125q-5.5 -7.75 -13.703125 -7.75q-8.0625 0 -12.890625 6.828125q-6.046875 8.734375 -6.046875 32.234375z" fill-rule="nonzero"/></g></svg>